<?xml version="1.0" standalone="no"?>
<!DOCTYPE svg PUBLIC "-//W3C//DTD SVG 20010904//EN"
 "http://www.w3.org/TR/2001/REC-SVG-20010904/DTD/svg10.dtd">
<svg version="1.0" xmlns="http://www.w3.org/2000/svg"
 width="900.000000pt" height="700.000000pt" viewBox="0 0 900.000000 700.000000"
 preserveAspectRatio="xMidYMid meet">
<metadata>
Created by potrace 1.16, written by Peter Selinger 2001-2019
</metadata>
<g transform="translate(0.000000,700.000000) scale(0.100000,-0.100000)"
fill="#000000" stroke="none">
<path d="M2675 6024 c-164 -30 -312 -111 -445 -244 -100 -100 -140 -159 -195
-287 -69 -158 -66 -66 -62 -2024 3 -1977 -4 -1804 77 -1976 52 -112 113 -195
203 -279 84 -78 150 -120 264 -169 148 -64 160 -65 1119 -65 l864 0 0 955 0
955 -310 0 -310 0 0 425 0 425 310 0 310 0 0 209 c0 141 5 237 15 297 72 420
349 754 716 865 71 22 93 23 487 27 l412 3 0 -420 0 -421 -343 0 c-336 0 -344
0 -387 -22 -31 -16 -54 -38 -75 -72 l-30 -49 -3 -209 -3 -208 420 0 421 0 0
-425 0 -425 -420 0 -420 0 0 -955 0 -955 469 0 c525 0 587 6 724 65 114 49
180 91 264 169 90 84 151 167 203 279 81 172 74 -1 77 1976 4 1958 7 1866 -62
2024 -49 114 -91 180 -169 264 -84 90 -167 151 -279 203 -172 81 3 74 -1987
76 -1514 2 -1787 0 -1855 -12z"/>
</g>
</svg>
