<?xml version="1.0" standalone="no"?>
<!DOCTYPE svg PUBLIC "-//W3C//DTD SVG 20010904//EN"
 "http://www.w3.org/TR/2001/REC-SVG-20010904/DTD/svg10.dtd">
<svg version="1.0" xmlns="http://www.w3.org/2000/svg"
 width="920.000000pt" height="920.000000pt" viewBox="0 0 920.000000 920.000000"
 preserveAspectRatio="xMidYMid meet">
<metadata>
Created by potrace 1.16, written by Peter Selinger 2001-2019
</metadata>
<g transform="translate(0.000000,920.000000) scale(0.100000,-0.100000)"
fill="#000000" stroke="none">
<path d="M1915 8895 c-329 -48 -625 -172 -890 -373 -88 -67 -258 -235 -330
-327 -215 -275 -341 -571 -390 -918 -22 -155 -22 -5201 0 -5356 59 -416 227
-759 519 -1060 302 -310 666 -495 1099 -556 155 -22 5201 -22 5356 0 432 62
794 246 1097 556 292 301 460 644 519 1060 22 155 22 5201 0 5356 -48 336
-170 629 -373 898 -67 88 -235 258 -327 330 -276 216 -568 340 -916 390 -90
13 -460 15 -2689 14 -2083 -1 -2603 -4 -2675 -14z m5280 -570 c302 -44 541
-161 751 -370 171 -170 277 -348 341 -575 55 -196 53 -81 53 -2777 0 -2443 -1
-2557 -31 -2698 -107 -505 -509 -907 -1014 -1014 -141 -30 -255 -31 -2698 -31
-2696 0 -2581 -2 -2777 53 -275 78 -506 234 -682 461 -144 186 -228 387 -263
631 -12 85 -15 468 -15 2592 0 2444 1 2558 31 2698 35 164 119 355 214 490 63
90 220 247 310 310 175 124 421 216 635 238 19 2 1162 4 2540 5 2141 1 2520 0
2605 -13z"/>
<path d="M6747 7455 c-180 -49 -336 -200 -392 -377 -20 -62 -25 -100 -25 -178
0 -130 30 -228 100 -328 158 -225 455 -308 705 -197 119 53 234 168 289 289
66 145 66 327 0 472 -68 150 -199 264 -359 313 -79 25 -240 27 -318 6z"/>
<path d="M4370 6889 c-537 -58 -1018 -287 -1395 -664 -433 -432 -674 -1014
-675 -1623 -1 -964 604 -1829 1509 -2161 426 -157 880 -183 1334 -76 396 93
783 310 1082 610 433 433 674 1013 675 1623 1 1092 -773 2038 -1845 2257 -197
40 -492 55 -685 34z m521 -590 c237 -40 472 -134 676 -271 141 -95 353 -303
447 -440 408 -592 413 -1358 14 -1955 -100 -149 -312 -361 -461 -461 -597
-399 -1363 -394 -1955 14 -137 94 -345 306 -440 447 -137 204 -231 439 -271
676 -29 168 -29 411 -1 578 40 241 145 496 286 701 89 128 298 337 426 426
201 139 458 245 693 285 160 28 422 28 586 0z"/>
</g>
</svg>
