<?xml version="1.0" standalone="no"?>
<!DOCTYPE svg PUBLIC "-//W3C//DTD SVG 20010904//EN"
 "http://www.w3.org/TR/2001/REC-SVG-20010904/DTD/svg10.dtd">
<svg version="1.0" xmlns="http://www.w3.org/2000/svg"
 width="786.000000pt" height="296.000000pt" viewBox="0 0 786.000000 296.000000"
 preserveAspectRatio="xMidYMid meet">
<metadata>
Created by potrace 1.16, written by Peter Selinger 2001-2019
</metadata>
<g transform="translate(0.000000,296.000000) scale(0.100000,-0.100000)"
fill="#000000" stroke="none">
<path d="M1210 2571 c-50 -10 -97 -40 -125 -81 -50 -71 -528 -1074 -533 -1116
-16 -144 130 -246 263 -185 55 25 67 41 124 164 l51 107 268 0 268 0 49 -101
c60 -123 76 -144 126 -169 80 -42 186 -14 236 61 23 36 28 53 27 103 -1 59
-11 82 -255 584 -141 290 -269 541 -287 563 -18 21 -45 45 -60 53 -35 18 -108
26 -152 17z m124 -703 l73 -153 -73 -3 c-41 -2 -107 -2 -148 0 l-74 3 71 153
c39 83 73 152 75 152 2 0 36 -69 76 -152z"/>
<path d="M1865 2571 c-45 -11 -69 -27 -103 -65 -75 -86 -48 -230 53 -288 35
-20 57 -23 168 -26 l127 -4 0 -437 c0 -402 2 -439 19 -476 22 -48 44 -69 94
-90 93 -38 193 -2 238 87 18 35 19 65 19 478 l0 440 114 0 c62 0 128 5 147 12
86 29 129 90 129 184 0 74 -29 127 -90 162 l-45 27 -420 2 c-231 1 -433 -2
-450 -6z"/>
<path d="M3414 2569 c-144 -17 -293 -89 -398 -193 -116 -113 -182 -243 -206
-401 -49 -320 135 -637 440 -758 184 -73 383 -63 570 29 80 39 109 61 180 133
92 93 143 175 178 292 98 320 -54 678 -350 823 -141 70 -267 92 -414 75z m228
-396 c68 -30 139 -102 171 -171 16 -36 22 -66 22 -127 0 -71 -4 -88 -33 -147
-36 -73 -86 -123 -161 -160 -38 -18 -62 -23 -136 -23 -74 0 -98 5 -136 23 -75
37 -125 87 -161 160 -29 59 -33 76 -33 147 0 94 21 148 81 215 105 115 246
146 386 83z"/>
<path d="M5332 2568 c-28 -6 -56 -22 -80 -46 -34 -34 -44 -60 -117 -295 -44
-141 -82 -257 -86 -257 -3 0 -41 113 -84 252 -44 139 -89 265 -100 281 -31 46
-80 67 -153 67 -91 0 -165 -43 -191 -111 -16 -45 -281 -1074 -281 -1094 0 -41
22 -97 51 -130 85 -97 261 -79 317 33 11 20 43 130 73 245 29 114 56 204 60
200 3 -5 37 -107 75 -227 74 -237 89 -266 159 -297 51 -24 99 -23 151 0 67 31
86 67 163 315 39 127 73 231 74 233 2 1 25 -82 51 -185 68 -263 73 -278 107
-316 115 -132 339 -50 339 124 0 51 -265 1083 -288 1123 -22 38 -78 74 -132
86 -52 12 -51 12 -108 -1z"/>
<path d="M6518 2570 c-379 -45 -655 -399 -607 -780 21 -171 79 -289 204 -415
143 -144 319 -212 525 -202 365 17 647 296 667 657 8 131 -14 238 -73 357
-131 267 -415 418 -716 383z m167 -375 c248 -64 337 -362 165 -549 -23 -25
-68 -58 -99 -73 -49 -24 -68 -28 -146 -28 -79 0 -97 4 -143 28 -161 85 -232
273 -161 427 47 101 126 169 228 196 62 17 86 17 156 -1z"/>
<path d="M5839 987 c-62 -42 -76 -106 -35 -154 45 -52 142 -28 172 42 21 50
17 73 -15 106 -36 36 -75 38 -122 6z"/>
<path d="M5502 984 c-12 -8 -27 -24 -32 -35 -13 -23 -130 -686 -130 -732 0
-42 10 -56 49 -67 52 -15 96 -1 128 40 13 18 133 684 133 741 0 22 -7 42 -18
52 -24 22 -100 22 -130 1z"/>
<path d="M4260 764 c-182 -49 -312 -243 -280 -415 13 -67 32 -100 85 -147 56
-50 113 -66 208 -60 133 9 253 91 314 215 22 46 29 75 32 141 3 74 0 89 -24
138 -32 64 -84 107 -158 129 -62 18 -106 18 -177 -1z m104 -178 c94 -39 100
-146 13 -223 -85 -75 -200 -46 -214 55 -9 70 39 141 114 167 48 18 47 18 87 1z"/>
<path d="M6933 762 c-107 -38 -183 -113 -224 -220 -28 -74 -30 -179 -5 -244
24 -64 92 -123 164 -144 104 -31 254 -3 319 58 29 27 31 87 5 111 -23 21 -74
22 -111 2 -98 -50 -211 -14 -211 67 l0 28 191 0 c105 0 199 4 209 10 36 19 51
115 29 193 -13 48 -61 102 -113 129 -58 30 -184 35 -253 10z m178 -161 c54
-54 44 -61 -91 -61 -66 0 -120 4 -120 8 0 10 48 56 75 70 11 6 39 12 63 12 35
0 49 -6 73 -29z"/>
<path d="M4923 752 c-94 -34 -163 -96 -192 -174 -6 -16 -24 -103 -41 -195 -26
-138 -29 -171 -19 -195 25 -62 139 -56 172 9 8 15 24 89 37 163 26 155 38 192
73 215 37 24 95 16 119 -16 19 -25 19 -27 -6 -169 -31 -170 -32 -202 -8 -223
42 -38 123 -25 157 26 23 36 67 307 63 388 -4 79 -34 126 -101 161 -59 30
-183 35 -254 10z"/>
<path d="M5792 754 c-12 -8 -27 -24 -32 -35 -13 -24 -90 -451 -90 -499 0 -46
9 -58 50 -70 45 -13 105 4 126 35 18 27 94 436 94 506 0 32 -6 51 -18 62 -24
22 -100 22 -130 1z"/>
<path d="M6264 761 c-97 -24 -189 -102 -217 -185 -8 -24 -28 -114 -43 -200
-31 -174 -29 -201 21 -225 25 -12 35 -12 69 0 61 22 73 47 103 219 25 144 29
157 59 188 56 56 144 35 144 -36 0 -15 -11 -91 -25 -168 -19 -108 -23 -145
-14 -165 10 -26 46 -49 75 -49 30 0 85 33 98 59 14 27 66 318 66 368 0 87 -58
163 -144 188 -52 16 -139 18 -192 6z"/>
<path d="M3420 695 c-7 -8 -10 -25 -6 -40 l6 -25 202 2 c179 3 202 5 212 21 8
12 8 22 0 35 -10 15 -33 17 -206 20 -164 2 -197 0 -208 -13z"/>
<path d="M3548 479 c-22 -12 -23 -42 -2 -63 23 -23 255 -23 278 0 9 8 16 22
16 29 0 7 -7 21 -16 29 -12 13 -40 16 -137 16 -67 0 -130 -5 -139 -11z"/>
<path d="M3312 278 c-18 -18 -14 -56 7 -68 12 -6 112 -10 255 -10 200 0 237 2
250 16 9 8 16 22 16 29 0 7 -7 21 -16 29 -13 14 -51 16 -258 16 -175 0 -245
-3 -254 -12z"/>
</g>
</svg>
