<?xml version="1.0" encoding="utf-8"?>
<!-- Generator: Adobe Illustrator 26.5.0, SVG Export Plug-In . SVG Version: 6.00 Build 0)  -->
<svg version="1.1" id="Layer_1" xmlns="http://www.w3.org/2000/svg" xmlns:xlink="http://www.w3.org/1999/xlink" x="0px" y="0px"
	 viewBox="0 0 97 97" style="enable-background:new 0 0 97 97;" xml:space="preserve">
<style type="text/css">
	.st0{fill:#FFFC06;}
</style>
<g>
	<g>
		<g>
			<g>
				<circle class="st0" cx="64.65" cy="58.99" r="4.59"/>
				<circle class="st0" cx="32.35" cy="38.01" r="4.59"/>
				<path class="st0" d="M90.09,59.65c1.01-3.77,6.6-7.06,6.6-11.15c0-4.08-5.59-7.38-6.6-11.15c-1.04-3.9,2.12-9.54,0.15-12.95
					c-2-3.46-8.49-3.53-11.3-6.34c-2.81-2.81-2.88-9.3-6.34-11.3c-3.41-1.97-9.06,1.19-12.95,0.15c-3.77-1.01-7.06-6.6-11.15-6.6
					c-4.08,0-7.38,5.59-11.15,6.6c-3.9,1.04-9.54-2.12-12.95-0.15c-3.46,2-3.53,8.49-6.34,11.3c-2.81,2.81-9.3,2.88-11.3,6.34
					c-1.97,3.41,1.19,9.06,0.15,12.95c-1.01,3.77-6.6,7.06-6.6,11.15c0,4.08,5.59,7.38,6.6,11.15c1.04,3.9-2.12,9.54-0.15,12.95
					c2,3.46,8.49,3.53,11.3,6.34c2.81,2.81,2.88,9.3,6.34,11.3c3.41,1.97,9.06-1.19,12.95-0.15c3.77,1.01,7.06,6.6,11.15,6.6
					c4.08,0,7.38-5.59,11.15-6.6c3.9-1.04,9.54,2.12,12.95,0.15c3.46-2,3.53-8.49,6.34-11.3c2.81-2.81,9.3-2.88,11.3-6.34
					C92.21,69.19,89.05,63.55,90.09,59.65z M22.14,38.01c0-5.63,4.58-10.22,10.22-10.22s10.22,4.58,10.22,10.22
					c0,5.63-4.58,10.22-10.22,10.22S22.14,43.64,22.14,38.01z M41.05,68.07c-0.23,0.4-0.65,0.65-1.12,0.65h-4.45
					c-0.99,0-1.6-1.06-1.12-1.92l21.57-37.87c0.23-0.4,0.65-0.65,1.12-0.65h4.45c0.99,0,1.6,1.06,1.12,1.92L41.05,68.07z
					 M64.65,69.21c-5.63,0-10.22-4.58-10.22-10.22s4.58-10.22,10.22-10.22c5.63,0,10.22,4.58,10.22,10.22S70.28,69.21,64.65,69.21z"
					/>
			</g>
		</g>
	</g>
</g>
</svg>
