<?xml version="1.0" encoding="utf-8"?>
<!-- Generator: Adobe Illustrator 17.0.0, SVG Export Plug-In . SVG Version: 6.00 Build 0)  -->
<!DOCTYPE svg PUBLIC "-//W3C//DTD SVG 1.1//EN" "http://www.w3.org/Graphics/SVG/1.1/DTD/svg11.dtd">
<svg version="1.1" id="Capa_1" xmlns="http://www.w3.org/2000/svg" xmlns:xlink="http://www.w3.org/1999/xlink" x="0px" y="0px"
	 width="170.415px" height="65px" viewBox="0 -5.251 170.415 65" enable-background="new 0 -5.251 170.415 65" xml:space="preserve"
	>
<g>
	<path fill-rule="evenodd" clip-rule="evenodd" fill="#FFFFFF" d="M115.31,57.331c0,0,22.658-7.148,50.703-7.259
		c0,0,0.222,0.661-0.222,0.661c-0.439,0-25.733-0.111-49.712,9.016L115.31,57.331z"/>
	<g>
		<path fill-rule="evenodd" clip-rule="evenodd" fill="#FFFFFF" d="M109.923,46.585c0.28-0.429,0.682-1.032,0.682-1.032
			c-0.045,0.153-0.053,0.328-0.05,0.481c0.013,0.328,0.106,0.629,0.164,0.915c0.23,0.979,1.238,1.407,2.153,1.503
			c0.114,0.021,0.209,0.016,0.325,0.016c1.026-0.037,1.992-0.82,2.633-2.026c0.124-0.222,0.164-0.418,0.161-0.556
			c-0.01-0.238-0.145-0.365-0.259-0.36c-0.063,0-0.13,0.026-0.175,0.116c-0.595,1.069-1.172,1.418-1.839,1.444
			c-0.24,0.005-0.505-0.032-0.767-0.085c-0.526-0.111-0.899-0.979-0.923-1.741c-0.016-0.439,0.066-0.836,0.323-1.042
			c1.611-1.434,3.185-2.492,3.159-3.196c-0.016-0.55-0.513-0.772-1.18-0.751c-1.516,0.455-3.511,3.894-4.756,5.577
			c-0.109,0.159-0.151,0.312-0.146,0.466c0.005,0.243,0.146,0.413,0.304,0.408C109.799,46.717,109.863,46.675,109.923,46.585z"/>
		<path fill-rule="evenodd" clip-rule="evenodd" fill="#FFFFFF" d="M121.717,46.167c0.407-0.804,0.748-2.265,0.703-3.54
			c-0.047-1.381-0.529-2.55-1.812-2.503c-0.294,0.005-0.616,0.085-0.984,0.227c-0.006-0.063,0.037-0.307,0.026-0.502
			c-0.003-0.175-0.058-0.355-0.254-0.344c-0.047,0-0.111,0.026-0.193,0.053c-1.219,0.545-1.915,2.106-1.986,2.704
			c-0.13,1.058-0.476,1.794-1.722,3.487c-0.108,0.159-0.151,0.318-0.148,0.445c0.01,0.265,0.161,0.476,0.293,0.471
			c0.048,0,0.098-0.021,0.13-0.063c0.309-0.434,0.68-1.037,0.68-1.037c-0.024,0.244-0.035,0.439-0.027,0.614
			c0.008,0.243,0.029,0.46,0.072,0.725c0.19,1.27,1.278,1.555,2.254,1.608C119.987,48.474,121.151,47.331,121.717,46.167z
			 M120.455,41.796c0.651,0.042,1.032,1.085,1.066,2.138c0.016,0.466-0.032,0.926-0.148,1.302c-0.413,1.291-1.325,2.09-2.159,2.121
			c-0.111,0-0.212-0.016-0.312-0.032c-0.471-0.122-0.664-0.857-0.693-1.693c-0.04-1.122,0.211-2.402,0.373-2.407
			C119.005,43.209,119.042,41.844,120.455,41.796z"/>
		<path fill-rule="evenodd" clip-rule="evenodd" fill="#FFFFFF" d="M125.357,43.252c0.098-0.005,0.135,0.106,0.143,0.323
			c0.034,0.968-0.392,3.73-0.519,5.249c0.011,0.307,0.246,0.434,0.505,0.423c0.291-0.011,0.63-0.174,0.732-0.466
			c0.476-1.27,1.49-3.899,2.371-3.926c1.661,0.026,1.349,3.244,2.471,3.206c0.717-0.026,1.542-1.132,2.127-2.048
			c0.169-0.27,0.228-0.492,0.222-0.672c-0.005-0.238-0.143-0.365-0.272-0.36c-0.066,0-0.132,0.047-0.177,0.116
			c-0.524,0.831-1.27,1.82-1.712,1.836c-0.328-0.053-0.489-4.682-2.016-4.629c-1.227,0.217-2.582,2.947-2.582,2.947
			c0.195-0.889,0.685-3.259,0.637-4.524c-0.016-0.529-0.127-0.878-0.37-0.873c-0.082,0.005-0.18,0.032-0.291,0.122
			c-1.08,0.809-3.302,4.291-4.156,5.529c-0.167,0.249-0.225,0.45-0.22,0.603c0.005,0.217,0.143,0.344,0.286,0.339
			c0.082,0,0.161-0.047,0.211-0.116C123.41,45.32,124.23,44.019,125.357,43.252z"/>
		<path fill-rule="evenodd" clip-rule="evenodd" fill="#FFFFFF" d="M132.971,45.119c-0.121,0.159-0.151,0.312-0.145,0.444
			c0.008,0.265,0.161,0.429,0.291,0.429c0.05,0,0.116-0.026,0.14-0.095c0.299-0.45,0.685-1.026,0.685-1.026
			c0.161,0.889,0.841,3.175,1.476,3.148c1.37-0.047,3.606-6.259,3.555-7.836c-0.325,0.016-0.748,0.048-0.759,0.228
			c-0.116,1.291-1.503,5.497-2.122,5.545c-0.225,0.005-0.78-1.963-0.846-3.735c-0.019-0.609,0.01-1.206,0.143-1.693
			c-0.006-0.042-0.037-0.058-0.101-0.058c-0.344,0.011-1.466,0.466-1.466,0.556C133.701,43.675,133.516,44.4,132.971,45.119z"/>
		<path fill-rule="evenodd" clip-rule="evenodd" fill="#FFFFFF" d="M138.521,44.945c-0.111,0.132-0.151,0.291-0.145,0.423
			c0.005,0.265,0.174,0.497,0.307,0.497c0.05-0.005,0.096-0.053,0.125-0.095c0.695-1.079,1.648-2.302,1.648-2.302
			c0.444,2.471,1.259,4.836,2.185,4.804c1.164-0.238,2.302-1.265,3.149-2.746c0.121-0.228,0.177-0.423,0.177-0.556
			c-0.011-0.244-0.167-0.365-0.291-0.365c-0.053,0.005-0.087,0.005-0.111,0.053c-0.267,0.317-1.047,1.746-1.749,1.772
			c-0.976,0.032-1.36-2.635-1.566-4.693c-0.005-0.111-0.556-0.55-0.963-0.535c-0.116,0-0.211,0.048-0.286,0.138
			C140.404,42.109,139.14,44.13,138.521,44.945z M141.256,37.469c0.13,0.016,0.262,0.032,0.373,0.032
			c1.026-0.037,1.338-0.863,1.315-1.63c-0.026-0.698-0.328-1.349-0.751-1.333c-0.609,0.259-1.344,1.646-1.315,2.418
			C140.889,37.241,140.994,37.432,141.256,37.469z"/>
		<path fill-rule="evenodd" clip-rule="evenodd" fill="#FFFFFF" d="M145.799,45.527c0.14-0.185,0.669-1.011,0.669-1.011
			c-0.089,0.244-0.124,0.572-0.116,0.905c0.037,1.074,0.606,2.349,2.227,2.296c1.008-0.08,1.915-1.148,2.67-2.381
			c0.172-0.27,0.227-0.492,0.222-0.645c-0.005-0.222-0.127-0.328-0.251-0.323c-0.066,0.005-0.133,0.032-0.199,0.095
			c-0.542,0.678-1.103,1.931-2.124,1.963c-0.133,0.005-0.283-0.011-0.429-0.048c-0.508-0.138-0.804-0.762-0.842-1.73
			c0-0.069,1.18-0.259,2.291-1.418c0.68-0.709,1.114-1.73,1.085-2.608c-0.016-0.503-0.45-0.714-1.063-0.688
			c-1.421,0.445-3.495,3.418-4.397,4.741c-0.09,0.138-0.117,0.296-0.117,0.423c0.011,0.265,0.151,0.503,0.283,0.497
			C145.738,45.595,145.77,45.569,145.799,45.527z M147.823,43.675c0.735-0.73,1.86-2.656,2.233-2.672
			c0.066,0,0.116,0.085,0.124,0.328c-0.018,1.233-2.124,2.577-2.481,2.593c-0.032,0-0.05,0-0.05-0.021
			C147.648,43.86,147.714,43.786,147.823,43.675z"/>
		<path fill-rule="evenodd" clip-rule="evenodd" fill="#FFFFFF" d="M153.878,42.252c0.095,0,0.129,0.111,0.14,0.328
			c0.037,0.968-0.386,3.73-0.518,5.249c0.01,0.307,0.246,0.434,0.502,0.423c0.294-0.016,0.63-0.18,0.735-0.471
			c0.474-1.265,1.492-3.894,2.368-3.921c1.664,0.026,1.355,3.243,2.474,3.206c0.714-0.026,1.542-1.133,2.13-2.053
			c0.166-0.27,0.227-0.487,0.222-0.667c-0.011-0.244-0.146-0.371-0.273-0.365c-0.063,0.005-0.129,0.053-0.174,0.116
			c-0.524,0.831-1.275,1.825-1.714,1.841c-0.325-0.053-0.487-4.683-2.019-4.635c-1.23,0.222-2.585,2.952-2.585,2.952
			c0.196-0.889,0.685-3.259,0.64-4.529c-0.016-0.524-0.127-0.873-0.373-0.863c-0.079,0-0.177,0.026-0.286,0.116
			c-1.079,0.804-3.304,4.291-4.156,5.529c-0.172,0.249-0.227,0.444-0.222,0.603c0.011,0.217,0.143,0.344,0.288,0.339
			c0.08-0.005,0.162-0.053,0.207-0.117C151.929,44.321,152.748,43.019,153.878,42.252z"/>
		<path fill-rule="evenodd" clip-rule="evenodd" fill="#FFFFFF" d="M161.735,44.971c0.14-0.185,0.664-1.016,0.664-1.016
			c-0.09,0.249-0.124,0.577-0.116,0.91c0.037,1.069,0.605,2.349,2.232,2.291c1.01-0.079,1.915-1.137,2.672-2.376
			c0.17-0.27,0.228-0.492,0.222-0.645c-0.01-0.222-0.127-0.323-0.259-0.317c-0.063,0-0.132,0.021-0.19,0.09
			c-0.55,0.678-1.106,1.931-2.132,1.963c-0.132,0.005-0.275-0.011-0.428-0.048c-0.503-0.138-0.807-0.767-0.836-1.73
			c-0.005-0.063,1.18-0.259,2.291-1.418c0.677-0.709,1.116-1.736,1.085-2.608c-0.021-0.508-0.45-0.709-1.069-0.693
			c-1.415,0.45-3.495,3.423-4.391,4.751c-0.096,0.132-0.122,0.286-0.117,0.418c0.011,0.264,0.146,0.497,0.278,0.497
			C161.674,45.04,161.706,45.014,161.735,44.971z M163.753,43.119c0.741-0.73,1.862-2.656,2.238-2.672
			c0.063,0,0.116,0.085,0.127,0.328c-0.021,1.233-2.127,2.577-2.484,2.587c-0.037,0.005-0.05,0.005-0.05-0.016
			C163.585,43.299,163.643,43.23,163.753,43.119z"/>
	</g>
	<g>
		<path fill-rule="evenodd" clip-rule="evenodd" fill="#FFFFFF" d="M32.49-5.251h21.997c0,0,3.849,0.439,3.849,4.286
			c0,3.852-3.738,4.513-3.738,4.513h-6.381v22.106c0,0-0.328,4.397-4.616,4.397c-4.291,0-4.4-4.175-4.4-4.175V3.987H32.82
			c0,0-3.96-0.439-3.96-4.952C28.86-4.701,32.49-5.251,32.49-5.251z"/>
		<path fill-rule="evenodd" clip-rule="evenodd" fill="#FFFFFF" d="M0.265,24.337L12.913-1.955c0,0,1.209-3.074,5.389-3.074
			c4.18,0,5.169,3.407,5.169,3.407l11.55,25.958c0,0,1.757,4.291-1.762,6.159c-3.518,1.868-6.6-2.312-6.6-2.312L17.751,8.167
			l-4.18,9.566h8.437l2.841,6.381H10.384l-2.751,4.841c0,0-3.079,3.079-5.828,1.206C-0.944,28.294,0.265,24.337,0.265,24.337z"/>
		<path fill-rule="evenodd" clip-rule="evenodd" fill="#FFFFFF" d="M92.871,25.431l6.931-26.613c0,0,1.542-3.847,5.389-3.847
			c3.849,0,4.619,3.518,4.619,3.518l3.741,13.635l3.41-12.757c0,0,0.661-4.508,5.5-4.508c4.839,0,5.278,4.508,5.278,4.508
			l6.709,25.63c0,0,0.222,4.286-3.299,5.386c-3.521,1.1-5.828-2.418-5.828-2.418l-3.521-12.323l-2.86,11.772
			c0,0-1.209,3.302-5.172,3.302c-3.958,0-4.945-3.302-4.945-3.302l-3.41-11.328l-2.531,11.545c0,0-2.532,4.19-6.598,2.751
			C92.545,29.067,92.871,25.431,92.871,25.431z"/>
		<path fill-rule="evenodd" clip-rule="evenodd" fill="#FFFFFF" d="M65.815,12.4c0-4.767,4.064-8.629,9.077-8.629
			c5.008,0,9.069,3.862,9.069,8.629c0,4.767-4.061,8.635-9.069,8.635C69.878,21.035,65.815,17.167,65.815,12.4z M56.796,12.347
			c0-9.656,8.026-17.487,17.926-17.487c9.904,0,17.931,7.831,17.931,17.487s-8.027,17.487-17.931,17.487
			C64.823,29.834,56.796,22.003,56.796,12.347z"/>
		<path fill-rule="evenodd" clip-rule="evenodd" fill="#FFFFFF" d="M143.577,12.4c0-4.767,4.061-8.629,9.071-8.629
			c5.013,0,9.077,3.862,9.077,8.629c0,4.767-4.064,8.635-9.077,8.635C147.637,21.035,143.577,17.167,143.577,12.4z M134.558,12.347
			c0-9.656,8.021-17.487,17.926-17.487c9.899,0,17.931,7.831,17.931,17.487s-8.032,17.487-17.931,17.487
			C142.579,29.834,134.558,22.003,134.558,12.347z"/>
	</g>
</g>
</svg>
